<?xml version="1.0" encoding="UTF-8" standalone="no"?>
<!DOCTYPE svg PUBLIC "-//W3C//DTD SVG 1.1//EN" "http://www.w3.org/Graphics/SVG/1.1/DTD/svg11.dtd">
<!-- Created with Vectornator (http://vectornator.io/) -->
<svg height="100%" stroke-miterlimit="10" style="fill-rule:nonzero;clip-rule:evenodd;stroke-linecap:round;stroke-linejoin:round;" version="1.1" viewBox="0 0 259.2 259.2" width="100%" xml:space="preserve" xmlns="http://www.w3.org/2000/svg" xmlns:vectornator="http://vectornator.io" xmlns:xlink="http://www.w3.org/1999/xlink">
<defs/>
<clipPath id="ArtboardFrame">
<rect height="259.2" width="259.2" x="0" y="0"/>
</clipPath>
<g clip-path="url(#ArtboardFrame)" id="Untitled" vectornator:layerName="Untitled">
<g opacity="1">
<clipPath id="ClipPath">
<path d="M0 0L259.2 0L259.2 259.2L0 259.2L0 0Z" fill-rule="evenodd"/>
</clipPath>
<g clip-path="url(#ClipPath)">
<path d="M30.2246 159.772L37.5736 159.772L37.5736 146.844L31.5656 146.844L31.5656 153.362C31.5656 156.151 31.1186 158.288 30.2246 159.772M40.6576 143.948L40.6576 159.772L42.6696 159.772L42.6696 166.316L39.5846 166.316L39.5846 162.722L28.1866 162.722L28.1866 166.316L25.1016 166.316L25.1016 159.772L26.8456 159.772C27.9356 158.36 28.4816 156.205 28.4816 153.308L28.4816 143.948L40.6576 143.948Z" fill="#1b444a" fill-rule="evenodd" opacity="1" stroke="none"/>
<path d="M49.1333 158.162C50.4383 159.432 52.0203 160.066 53.8803 160.066C55.7583 160.066 57.3313 159.432 58.6013 158.162C59.8883 156.875 60.5323 155.266 60.5323 153.334C60.5323 151.403 59.8883 149.804 58.6013 148.533C57.3313 147.246 55.7583 146.602 53.8803 146.602C52.0033 146.602 50.4213 147.246 49.1333 148.533C47.8633 149.804 47.2293 151.403 47.2293 153.334C47.2293 155.248 47.8633 156.857 49.1333 158.162M60.7733 160.254C58.8963 162.132 56.5983 163.07 53.8803 163.07C51.1623 163.07 48.8563 162.132 46.9613 160.254C45.0833 158.359 44.1443 156.053 44.1443 153.334C44.1443 150.616 45.0833 148.319 46.9613 146.441C48.8563 144.547 51.1623 143.599 53.8803 143.599C56.5983 143.599 58.8963 144.547 60.7733 146.441C62.6683 148.319 63.6163 150.616 63.6163 153.334C63.6163 156.053 62.6683 158.359 60.7733 160.254" fill="#1b444a" fill-rule="evenodd" opacity="1" stroke="none"/>
<path d="M81.103 143.948L84.402 143.948L84.402 162.722L81.317 162.722L81.317 149.339L75.604 158.78L75.229 158.78L69.517 149.312L69.517 162.722L66.432 162.722L66.432 143.948L69.758 143.948L75.417 153.335L81.103 143.948Z" fill="#1b444a" fill-rule="evenodd" opacity="1" stroke="none"/>
<path d="M101.165 153.093L109.023 162.722L105.349 162.722L97.9466 153.79L97.9466 162.722L94.8616 162.722L94.8616 143.947L97.9466 143.947L97.9466 152.369L105.081 143.947L108.755 143.947L101.165 153.093Z" fill="#1b444a" fill-rule="evenodd" opacity="1" stroke="none"/>
<path d="M113.475 158.162C114.78 159.432 116.362 160.066 118.222 160.066C120.1 160.066 121.673 159.432 122.943 158.162C124.23 156.875 124.874 155.266 124.874 153.334C124.874 151.403 124.23 149.804 122.943 148.533C121.673 147.246 120.1 146.602 118.222 146.602C116.345 146.602 114.763 147.246 113.475 148.533C112.205 149.804 111.571 151.403 111.571 153.334C111.571 155.248 112.205 156.857 113.475 158.162M125.115 160.254C123.238 162.132 120.94 163.07 118.222 163.07C115.504 163.07 113.198 162.132 111.303 160.254C109.425 158.359 108.486 156.053 108.486 153.334C108.486 150.616 109.425 148.319 111.303 146.441C113.198 144.547 115.504 143.599 118.222 143.599C120.94 143.599 123.238 144.547 125.115 146.441C127.01 148.319 127.958 150.616 127.958 153.334C127.958 156.053 127.01 158.359 125.115 160.254" fill="#1b444a" fill-rule="evenodd" opacity="1" stroke="none"/>
<path d="M145.444 143.948L148.743 143.948L148.743 162.722L145.659 162.722L145.659 149.339L139.946 158.78L139.571 158.78L133.858 149.312L133.858 162.722L130.773 162.722L130.773 143.948L134.099 143.948L139.758 153.335L145.444 143.948Z" fill="#1b444a" fill-rule="evenodd" opacity="1" stroke="none"/>
<path d="M163.065 148.641L163.065 158.029C166.82 157.653 168.698 156.088 168.698 153.334C168.698 150.545 166.82 148.981 163.065 148.641M154.376 153.334C154.376 156.124 156.261 157.689 160.035 158.029L160.035 148.641C156.261 148.981 154.376 150.545 154.376 153.334M163.065 160.844L163.065 162.991L160.035 162.991L160.035 160.844C157.352 160.63 155.224 159.87 153.651 158.565C152.078 157.26 151.292 155.516 151.292 153.334C151.292 151.171 152.078 149.437 153.651 148.131C155.243 146.809 157.371 146.039 160.035 145.825L160.035 143.679L163.065 143.679L163.065 145.825C165.694 146.039 167.803 146.809 169.395 148.131C170.986 149.454 171.782 151.189 171.782 153.334C171.782 155.498 170.986 157.242 169.395 158.565C167.821 159.87 165.711 160.63 163.065 160.844" fill="#1b444a" fill-rule="evenodd" opacity="1" stroke="none"/>
<path d="M178.38 158.162C179.685 159.432 181.267 160.066 183.127 160.066C185.004 160.066 186.577 159.432 187.847 158.162C189.135 156.875 189.778 155.266 189.778 153.334C189.778 151.403 189.135 149.804 187.847 148.533C186.577 147.246 185.004 146.602 183.127 146.602C181.249 146.602 179.667 147.246 178.38 148.533C177.109 149.804 176.476 151.403 176.476 153.334C176.476 155.248 177.109 156.857 178.38 158.162M190.02 160.254C188.142 162.132 185.845 163.07 183.127 163.07C180.408 163.07 178.102 162.132 176.207 160.254C174.329 158.359 173.391 156.053 173.391 153.334C173.391 150.616 174.329 148.319 176.207 146.441C178.102 144.547 180.408 143.599 183.127 143.599C185.845 143.599 188.142 144.547 190.02 146.441C191.914 148.319 192.862 150.616 192.862 153.334C192.862 156.053 191.914 158.359 190.02 160.254" fill="#1b444a" fill-rule="evenodd" opacity="1" stroke="none"/>
<path d="M198.764 153.388L202.599 153.388C203.511 153.388 204.262 153.079 204.852 152.463C205.442 151.846 205.738 151.064 205.738 150.117C205.738 149.168 205.442 148.386 204.852 147.77C204.262 147.153 203.511 146.844 202.599 146.844L198.764 146.844L198.764 153.388ZM195.679 143.948L202.599 143.948C204.369 143.948 205.844 144.537 207.025 145.718C208.222 146.898 208.822 148.364 208.822 150.117C208.822 151.851 208.222 153.317 207.025 154.515C205.844 155.695 204.369 156.284 202.599 156.284L198.764 156.284L198.764 162.722L195.679 162.722L195.679 143.948Z" fill="#1b444a" fill-rule="evenodd" opacity="1" stroke="none"/>
<path d="M209.625 143.948L223.304 143.948L223.304 146.898L218.02 146.898L218.02 162.722L214.936 162.722L214.936 146.898L209.625 146.898L209.625 143.948Z" fill="#1b444a" fill-rule="evenodd" opacity="1" stroke="none"/>
<path d="M231.162 147.569L228.185 156.044L234.14 156.044L231.162 147.569ZM239.799 162.722L236.473 162.722L235.158 158.94L227.166 158.94L225.851 162.722L222.499 162.722L229.311 143.948L233.013 143.948L239.799 162.722Z" fill="#1b444a" fill-rule="evenodd" opacity="1" stroke="none"/>
<path d="M73.2485 186.207L75.9945 178.732L77.7675 178.732L73.8775 188.857C73.4705 189.938 72.8985 190.762 72.1615 191.327C71.4235 191.893 70.5845 192.144 69.6445 192.08L69.6445 190.536C70.8005 190.625 71.6595 189.989 72.2185 188.629L72.3715 188.286L68.2325 178.732L69.9875 178.732L73.2485 186.207Z" fill="#1b444a" fill-rule="evenodd" opacity="1" stroke="none"/>
<path d="M79.1602 178.733L87.4172 178.733L87.4172 188.267L85.7582 188.267L85.7582 180.315L80.8192 180.315L80.8192 188.267L79.1602 188.267L79.1602 178.733Z" fill="#1b444a" fill-rule="evenodd" opacity="1" stroke="none"/>
<path d="M94.9868 186.913C95.9398 186.913 96.7408 186.589 97.3898 185.94C98.0378 185.267 98.3618 184.453 98.3618 183.499C98.3618 182.533 98.0378 181.726 97.3898 181.077C96.7408 180.417 95.9398 180.086 94.9868 180.086C94.0208 180.086 93.2138 180.417 92.5648 181.077C91.9168 181.726 91.5918 182.533 91.5918 183.499C91.5918 184.453 91.9168 185.267 92.5648 185.94C93.2138 186.589 94.0208 186.913 94.9868 186.913M95.1958 178.484C96.5308 178.484 97.6688 178.974 98.6098 179.952C99.5498 180.932 100.021 182.114 100.021 183.499C100.021 184.897 99.5498 186.087 98.6098 187.065C97.6818 188.031 96.5438 188.515 95.1958 188.515C93.6198 188.515 92.4188 187.885 91.5918 186.627L91.5918 192.08L89.9338 192.08L89.9338 178.732L91.5918 178.732L91.5918 180.372C92.4188 179.113 93.6198 178.484 95.1958 178.484" fill="#1b444a" fill-rule="evenodd" opacity="1" stroke="none"/>
<path d="M106.504 186.913C107.47 186.913 108.277 186.589 108.926 185.94C109.574 185.267 109.899 184.453 109.899 183.499C109.899 182.533 109.574 181.726 108.926 181.077C108.277 180.417 107.47 180.086 106.504 180.086C105.551 180.086 104.75 180.417 104.101 181.077C103.453 181.726 103.129 182.533 103.129 183.499C103.129 184.453 103.453 185.267 104.101 185.94C104.75 186.589 105.551 186.913 106.504 186.913M109.899 180.372L109.899 178.732L111.557 178.732L111.557 188.267L109.899 188.267L109.899 186.627C109.085 187.885 107.883 188.515 106.295 188.515C104.947 188.515 103.809 188.031 102.881 187.065C101.94 186.087 101.47 184.897 101.47 183.499C101.47 182.114 101.94 180.932 102.881 179.952C103.821 178.974 104.96 178.484 106.295 178.484C107.883 178.484 109.085 179.113 109.899 180.372" fill="#1b444a" fill-rule="evenodd" opacity="1" stroke="none"/>
<path d="M115.696 186.76L118.747 186.76C119.23 186.76 119.602 186.646 119.863 186.417C120.123 186.189 120.254 185.864 120.254 185.445C120.254 185.051 120.123 184.742 119.863 184.52C119.602 184.297 119.23 184.186 118.747 184.186L115.696 184.186L115.696 186.76ZM118.385 180.22L115.696 180.22L115.696 182.718L118.385 182.718C119.351 182.718 119.834 182.292 119.834 181.44C119.834 180.626 119.351 180.22 118.385 180.22M120.425 183.366C121.404 183.773 121.894 184.51 121.894 185.578C121.894 186.392 121.627 187.043 121.092 187.532C120.559 188.023 119.808 188.267 118.842 188.267L114.075 188.267L114.075 178.733L118.461 178.733C119.402 178.733 120.136 178.968 120.664 179.438C121.191 179.908 121.455 180.537 121.455 181.325C121.455 182.241 121.112 182.921 120.425 183.366" fill="#1b444a" fill-rule="evenodd" opacity="1" stroke="none"/>
<path d="M124.277 178.733L131.351 178.733L131.351 188.267L129.693 188.267L129.693 180.335L125.936 180.335L125.936 184.224C125.936 185.75 125.631 186.834 125.021 187.476C124.41 188.118 123.514 188.381 122.332 188.267L122.332 186.704C122.993 186.793 123.483 186.643 123.8 186.255C124.118 185.868 124.277 185.178 124.277 184.186L124.277 178.733Z" fill="#1b444a" fill-rule="evenodd" opacity="1" stroke="none"/>
<path d="M136.996 183.347L139.361 183.347L139.361 180.277L136.996 180.277C136.513 180.277 136.109 180.42 135.785 180.706C135.461 180.992 135.299 181.364 135.299 181.822C135.299 182.267 135.461 182.632 135.785 182.918C136.109 183.204 136.513 183.347 136.996 183.347M136.939 178.733L141.001 178.733L141.001 188.267L139.361 188.267L139.361 184.834L137.969 184.834L135.299 188.267L133.277 188.267L136.061 184.74C135.337 184.561 134.756 184.205 134.317 183.671C133.879 183.137 133.659 182.515 133.659 181.802C133.659 180.925 133.971 180.195 134.594 179.61C135.216 179.025 135.998 178.733 136.939 178.733" fill="#1b444a" fill-rule="evenodd" opacity="1" stroke="none"/>
<path d="M151.851 186.894C152.791 186.894 153.586 186.57 154.235 185.921C154.883 185.273 155.207 184.466 155.207 183.499C155.207 182.534 154.883 181.726 154.235 181.078C153.586 180.429 152.791 180.105 151.851 180.105C150.898 180.105 150.097 180.429 149.449 181.078C148.8 181.726 148.476 182.534 148.476 183.499C148.476 184.466 148.8 185.273 149.449 185.921C150.097 186.57 150.898 186.894 151.851 186.894M151.851 178.485C153.249 178.485 154.432 178.968 155.398 179.934C156.376 180.913 156.867 182.101 156.867 183.499C156.867 184.898 156.376 186.087 155.398 187.066C154.432 188.032 153.249 188.515 151.851 188.515C150.592 188.515 149.505 188.115 148.59 187.314C147.663 186.513 147.116 185.502 146.951 184.282L145.177 184.282L145.177 188.267L143.518 188.267L143.518 178.733L145.177 178.733L145.177 182.699L146.951 182.699C147.128 181.478 147.675 180.474 148.59 179.686C149.531 178.885 150.618 178.485 151.851 178.485" fill="#1b444a" fill-rule="evenodd" opacity="1" stroke="none"/>
<path d="M171.816 178.733L171.816 186.684L173.131 186.684L173.131 190.823L171.492 190.823L171.492 188.267L158.849 188.267L158.849 178.733L160.508 178.733L160.508 186.684L164.512 186.684L164.512 178.733L166.171 178.733L166.171 186.684L170.157 186.684L170.157 178.733L171.816 178.733Z" fill="#1b444a" fill-rule="evenodd" opacity="1" stroke="none"/>
<path d="M179.043 186.913C180.009 186.913 180.816 186.589 181.465 185.94C182.113 185.267 182.438 184.453 182.438 183.499C182.438 182.533 182.113 181.726 181.465 181.077C180.816 180.417 180.009 180.086 179.043 180.086C178.09 180.086 177.289 180.417 176.641 181.077C175.992 181.726 175.668 182.533 175.668 183.499C175.668 184.453 175.992 185.267 176.641 185.94C177.289 186.589 178.09 186.913 179.043 186.913M182.438 180.372L182.438 178.732L184.097 178.732L184.097 188.267L182.438 188.267L182.438 186.627C181.624 187.885 180.422 188.515 178.833 188.515C177.485 188.515 176.348 188.031 175.42 187.065C174.479 186.087 174.009 184.897 174.009 183.499C174.009 182.114 174.479 180.932 175.42 179.952C176.36 178.974 177.498 178.484 178.833 178.484C180.422 178.484 181.624 179.113 182.438 180.372" fill="#1b444a" fill-rule="evenodd" opacity="1" stroke="none"/>
<path d="M189.741 183.347L192.106 183.347L192.106 180.277L189.741 180.277C189.258 180.277 188.854 180.42 188.53 180.706C188.206 180.992 188.044 181.364 188.044 181.822C188.044 182.267 188.206 182.632 188.53 182.918C188.854 183.204 189.258 183.347 189.741 183.347M189.684 178.733L193.746 178.733L193.746 188.267L192.106 188.267L192.106 184.834L190.714 184.834L188.044 188.267L186.022 188.267L188.806 184.74C188.082 184.561 187.501 184.205 187.062 183.671C186.624 183.137 186.404 182.515 186.404 181.802C186.404 180.925 186.716 180.195 187.339 179.61C187.961 179.025 188.743 178.733 189.684 178.733" fill="#1b444a" fill-rule="evenodd" opacity="1" stroke="none"/>
<path d="M95.3804 200.302L100.09 205.222L98.0304 205.222L93.6834 200.702L93.6834 205.222L92.0244 205.222L92.0244 195.688L93.6834 195.688L93.6834 199.902L97.8024 195.688L99.9384 195.688L95.3804 200.302Z" fill="#1b444a" fill-rule="evenodd" opacity="1" stroke="none"/>
<path d="M105.239 203.849C106.193 203.849 106.993 203.525 107.642 202.876C108.29 202.228 108.614 201.421 108.614 200.454C108.614 199.489 108.29 198.681 107.642 198.033C106.993 197.384 106.193 197.06 105.239 197.06C104.298 197.06 103.504 197.384 102.855 198.033C102.207 198.681 101.883 199.489 101.883 200.454C101.883 201.421 102.207 202.228 102.855 202.876C103.504 203.525 104.298 203.849 105.239 203.849M108.805 204.021C107.839 204.987 106.65 205.47 105.239 205.47C103.828 205.47 102.639 204.987 101.673 204.021C100.707 203.055 100.224 201.866 100.224 200.454C100.224 199.043 100.707 197.855 101.673 196.889C102.639 195.923 103.828 195.44 105.239 195.44C106.65 195.44 107.839 195.923 108.805 196.889C109.784 197.868 110.273 199.056 110.273 200.454C110.273 201.853 109.784 203.042 108.805 204.021" fill="#1b444a" fill-rule="evenodd" opacity="1" stroke="none"/>
<path d="M119.998 195.688L121.771 195.688L121.771 205.222L120.151 205.222L120.151 198.3L117.119 203.182L116.909 203.182L113.877 198.3L113.877 205.222L112.237 205.222L112.237 195.688L114.011 195.688L117.004 200.512L119.998 195.688Z" fill="#1b444a" fill-rule="evenodd" opacity="1" stroke="none"/>
<path d="M124.308 195.688L132.566 195.688L132.566 205.222L130.906 205.222L130.906 197.27L125.968 197.27L125.968 205.222L124.308 205.222L124.308 195.688Z" fill="#1b444a" fill-rule="evenodd" opacity="1" stroke="none"/>
<path d="M139.583 203.868C140.549 203.868 141.356 203.544 142.005 202.895C142.653 202.222 142.978 201.408 142.978 200.454C142.978 199.488 142.653 198.681 142.005 198.032C141.356 197.372 140.549 197.041 139.583 197.041C138.63 197.041 137.829 197.372 137.181 198.032C136.532 198.681 136.208 199.488 136.208 200.454C136.208 201.408 136.532 202.222 137.181 202.895C137.829 203.544 138.63 203.868 139.583 203.868M142.978 197.327L142.978 195.687L144.637 195.687L144.637 205.222L142.978 205.222L142.978 203.582C142.164 204.84 140.962 205.47 139.373 205.47C138.025 205.47 136.888 204.986 135.96 204.02C135.019 203.042 134.549 201.852 134.549 200.454C134.549 199.069 135.019 197.887 135.96 196.907C136.9 195.929 138.038 195.439 139.373 195.439C140.962 195.439 142.164 196.068 142.978 197.327" fill="#1b444a" fill-rule="evenodd" opacity="1" stroke="none"/>
<path d="M153.751 199.654L153.751 195.688L155.41 195.688L155.41 205.222L153.751 205.222L153.751 201.237L148.813 201.237L148.813 205.222L147.153 205.222L147.153 195.688L148.813 195.688L148.813 199.654L153.751 199.654Z" fill="#1b444a" fill-rule="evenodd" opacity="1" stroke="none"/>
<path d="M159.567 202.38L164.849 195.688L166.184 195.688L166.184 205.222L164.545 205.222L164.545 198.528L159.262 205.222L157.927 205.222L157.927 195.688L159.567 195.688L159.567 202.38Z" fill="#1b444a" fill-rule="evenodd" opacity="1" stroke="none"/>
<path d="M171.828 200.302L174.193 200.302L174.193 197.232L171.828 197.232C171.345 197.232 170.941 197.375 170.617 197.661C170.293 197.947 170.131 198.319 170.131 198.777C170.131 199.222 170.293 199.587 170.617 199.873C170.941 200.159 171.345 200.302 171.828 200.302M171.771 195.688L175.833 195.688L175.833 205.222L174.193 205.222L174.193 201.789L172.801 201.789L170.131 205.222L168.109 205.222L170.893 201.695C170.169 201.516 169.588 201.16 169.149 200.626C168.711 200.092 168.491 199.47 168.491 198.757C168.491 197.88 168.803 197.15 169.426 196.565C170.048 195.98 170.83 195.688 171.771 195.688" fill="#1b444a" fill-rule="evenodd" opacity="1" stroke="none"/>
<path d="M145.585 69.9391L131.218 72.9221L131.22 72.9221L131.22 131.41L151.066 131.366L151.066 68.8061L145.585 69.9391Z" fill="#03923a" fill-rule="evenodd" opacity="1" stroke="none"/>
<path d="M93.7612 131.366L93.7612 58.3158L102.94 60.2828L102.94 43.8908L75.7792 56.8168L75.7792 131.366L93.7612 131.366Z" fill="#b7cd1e" fill-rule="evenodd" opacity="1" stroke="none"/>
<path d="M93.7612 58.3145L93.7612 131.363L102.94 131.363L102.94 60.2845L93.7612 58.3145Z" fill="#6eb637" fill-rule="evenodd" opacity="1" stroke="none"/>
<path d="M102.94 60.2847L102.94 131.368L111.368 131.368L111.368 68.8017L119.048 70.3977L119.048 63.7437L102.94 60.2847Z" fill="#99c332" fill-rule="evenodd" opacity="1" stroke="none"/>
<path d="M111.367 68.8048L111.367 131.365L119.048 131.365L119.048 70.3968L111.367 68.8048Z" fill="#02a53d" fill-rule="evenodd" opacity="1" stroke="none"/>
<path d="M119.047 70.398L119.047 131.366L128.973 131.366L128.991 72.46L119.047 70.398Z" fill="#58b038" fill-rule="evenodd" opacity="1" stroke="none"/>
<path d="M128.973 131.364L131.225 131.364L131.225 72.9193L128.991 72.4613L128.973 131.364Z" fill="#03923a" fill-rule="evenodd" opacity="1" stroke="none"/>
<path d="M151.065 68.8048L151.065 131.365L161.691 131.365L161.691 60.2858L145.584 63.7458L145.584 69.9378L151.065 68.8048Z" fill="#498a25" fill-rule="evenodd" opacity="1" stroke="none"/>
<path d="M161.692 60.2847L161.692 131.368L170.871 131.368L170.871 58.3127L161.692 60.2847Z" fill="#087027" fill-rule="evenodd" opacity="1" stroke="none"/>
<path d="M161.692 60.2847L170.871 58.3127L170.871 131.368L188.852 131.368L188.852 56.8157L161.692 43.8927L161.692 60.2847Z" fill="#077b2b" fill-rule="evenodd" opacity="1" stroke="none"/>
<path d="M151.065 131.366L151.065 68.8048L145.584 69.9388L145.584 131.366L151.065 131.366Z" fill="#087027" fill-rule="evenodd" opacity="1" stroke="none"/>
</g>
</g>
</g>
</svg>
